<?xml version="1.0" encoding="UTF-8"?>
<svg id="Layer_1" data-name="Layer 1" xmlns="http://www.w3.org/2000/svg" viewBox="0 0 1598 1080">
  <defs>
    <style>
      .cls-1, .cls-2 {
        fill: #eaca78;
      }

      .cls-2 {
        opacity: .71;
      }
    </style>
  </defs>
  <polygon class="cls-2" points="138.77 186.19 138.77 72.56 40.37 15.75 -58.04 72.56 -58.04 186.19 40.37 243 138.77 186.19"/>
  <polygon class="cls-1" points="31.96 369.36 31.96 255.74 -66.44 198.92 -164.85 255.74 -164.85 369.36 -66.44 426.18 31.96 369.36"/>
  <polygon class="cls-2" points="1491.08 893.56 1491.08 779.93 1392.68 723.12 1294.27 779.93 1294.27 893.56 1392.68 950.37 1491.08 893.56"/>
  <polygon class="cls-2" points="1591.07 1073.11 1591.07 959.48 1492.67 902.67 1394.27 959.48 1394.27 1073.11 1492.67 1129.92 1591.07 1073.11"/>
  <polygon class="cls-2" points="1183.66 1068.39 1183.66 954.76 1085.26 897.94 986.86 954.76 986.86 1068.39 1085.26 1125.2 1183.66 1068.39"/>
  <polygon class="cls-1" points="1388.63 1069.25 1388.63 955.63 1290.22 898.81 1191.82 955.63 1191.82 1069.25 1290.22 1126.07 1388.63 1069.25"/>
  <polygon class="cls-1" points="1695.63 895.25 1695.63 781.63 1597.22 724.81 1498.82 781.63 1498.82 895.25 1597.22 952.07 1695.63 895.25"/>
</svg>