<?xml version="1.0" encoding="UTF-8"?>
<svg id="Layer_3" data-name="Layer 3" xmlns="http://www.w3.org/2000/svg" viewBox="0 0 1598 1080">
  <defs>
    <style>
      .cls-1, .cls-2 {
        fill: #eaca78;
      }

      .cls-3 {
        fill: none;
        stroke: #eaca78;
        stroke-miterlimit: 10;
        stroke-width: 10px;
      }

      .cls-2 {
        opacity: .71;
      }
    </style>
  </defs>
  <polygon class="cls-2" points="1612.15 1105.28 1612.15 991.65 1513.74 934.84 1415.34 991.65 1415.34 1105.28 1513.74 1162.09 1612.15 1105.28"/>
  <polygon class="cls-2" points="154.15 217.28 154.15 103.65 55.74 46.84 -42.66 103.65 -42.66 217.28 55.74 274.09 154.15 217.28"/>
  <polygon class="cls-1" points="51.46 400.62 51.46 286.99 -46.95 230.18 -145.35 286.99 -145.35 400.62 -46.95 457.43 51.46 400.62"/>
  <polygon class="cls-1" points="1202.82 1104.21 1202.82 990.59 1104.42 933.77 1006.02 990.59 1006.02 1104.21 1104.42 1161.03 1202.82 1104.21"/>
  <polygon class="cls-3" points="1470.52 661.6 1470.52 775.27 1568.96 832.11 1667.41 775.27 1667.41 661.6 1568.96 604.76 1470.52 661.6"/>
</svg>